<svg width="39" height="39" viewBox="0 0 39 39" fill="none" xmlns="http://www.w3.org/2000/svg">
<rect x="0.206314" y="0.823395" width="38" height="38" rx="6.33333" fill="#5D5FEF"/>
<rect x="18.0756" y="10.8504" width="1.69643" height="9.04762" fill="white"/>
<rect x="18.0201" y="9.50348" width="1.69643" height="15.0046" transform="rotate(51.8154 18.0201 9.50348)" fill="white"/>
<rect x="18.3674" y="20.2011" width="1.69643" height="12.6055" transform="rotate(33.096 18.3674 20.2011)" fill="white"/>
<rect x="6.55371" y="20.1678" width="1.69643" height="12.6055" transform="rotate(-24.7049 6.55371 20.1678)" fill="white"/>
<rect x="30.3398" y="19.4111" width="1.69643" height="11.8788" transform="rotate(27.4657 30.3398 19.4111)" fill="white"/>
<rect x="6.14066" y="20.9208" width="1.69643" height="21.9476" transform="rotate(-62.2575 6.14066 20.9208)" fill="white"/>
<rect x="31.3597" y="19.8422" width="1.69643" height="22.1259" transform="rotate(62.9104 31.3597 19.8422)" fill="white"/>
<circle cx="19.2063" cy="9.72164" r="2.2619" fill="white"/>
<circle cx="19.2063" cy="19.9012" r="2.2619" fill="white"/>
<circle cx="7.89717" cy="19.9012" r="2.2619" fill="white"/>
<circle cx="12.4204" cy="30.079" r="2.2619" fill="white"/>
<circle cx="30.5163" cy="19.9012" r="2.2619" fill="white"/>
<circle cx="25.9922" cy="30.079" r="2.2619" fill="white"/>
</svg>
