<svg width="23" height="22" viewBox="0 0 23 22" fill="none" xmlns="http://www.w3.org/2000/svg">
<g clip-path="url(#clip0_1_618)">
<path fill-rule="evenodd" clip-rule="evenodd" d="M2.05052 13.8751C2.8916 13.034 4.03234 12.5615 5.2218 12.5615H12.3976C13.587 12.5615 14.7278 13.034 15.5689 13.8751C16.4099 14.7162 16.8824 15.8569 16.8824 17.0464V18.8403C16.8824 19.3357 16.4809 19.7373 15.9855 19.7373C15.4901 19.7373 15.0885 19.3357 15.0885 18.8403V17.0464C15.0885 16.3327 14.805 15.6482 14.3003 15.1436C13.7957 14.6389 13.1113 14.3554 12.3976 14.3554H5.2218C4.50813 14.3554 3.82368 14.6389 3.31904 15.1436C2.81439 15.6482 2.53088 16.3327 2.53088 17.0464V18.8403C2.53088 19.3357 2.1293 19.7373 1.63391 19.7373C1.13853 19.7373 0.736938 19.3357 0.736938 18.8403V17.0464C0.736938 15.8569 1.20945 14.7162 2.05052 13.8751Z" fill="#707494"/>
<path fill-rule="evenodd" clip-rule="evenodd" d="M8.80969 3.59177C7.32354 3.59177 6.11877 4.79653 6.11877 6.28268C6.11877 7.76884 7.32354 8.9736 8.80969 8.9736C10.2958 8.9736 11.5006 7.76884 11.5006 6.28268C11.5006 4.79653 10.2958 3.59177 8.80969 3.59177ZM4.32483 6.28268C4.32483 3.80576 6.33277 1.79782 8.80969 1.79782C11.2866 1.79782 13.2946 3.80576 13.2946 6.28268C13.2946 8.75961 11.2866 10.7675 8.80969 10.7675C6.33277 10.7675 4.32483 8.75961 4.32483 6.28268Z" fill="#707494"/>
<path fill-rule="evenodd" clip-rule="evenodd" d="M17.8079 13.3508C17.9318 12.8712 18.421 12.5827 18.9006 12.7066C19.8628 12.955 20.7152 13.5159 21.324 14.3013C21.9328 15.0867 22.2635 16.052 22.2643 17.0457L22.2643 18.8403C22.2643 19.3357 21.8627 19.7373 21.3673 19.7373C20.8719 19.7373 20.4703 19.3357 20.4703 18.8403V17.047C20.4703 17.0469 20.4703 17.0471 20.4703 17.047C20.4698 16.4509 20.2714 15.8715 19.9062 15.4004C19.5409 14.9292 19.0294 14.5926 18.4522 14.4436C17.9725 14.3197 17.6841 13.8305 17.8079 13.3508Z" fill="#707494"/>
<path fill-rule="evenodd" clip-rule="evenodd" d="M14.2196 2.58892C14.3424 2.10902 14.8311 1.81959 15.311 1.94246C16.2757 2.18947 17.1308 2.75052 17.7414 3.53718C18.352 4.32383 18.6834 5.29134 18.6834 6.28717C18.6834 7.283 18.352 8.25051 17.7414 9.03717C17.1308 9.82382 16.2757 10.3849 15.311 10.6319C14.8311 10.7548 14.3424 10.4653 14.2196 9.98542C14.0967 9.50552 14.3861 9.01687 14.866 8.894C15.4448 8.7458 15.9579 8.40916 16.3243 7.93717C16.6906 7.46517 16.8895 6.88467 16.8895 6.28717C16.8895 5.68967 16.6906 5.10917 16.3243 4.63718C15.9579 4.16518 15.4448 3.82855 14.866 3.68035C14.3861 3.55747 14.0967 3.06882 14.2196 2.58892Z" fill="#707494"/>
</g>
<defs>
<clipPath id="clip0_1_618">
<rect width="21.5273" height="21.5273" fill="white" transform="translate(0.736938 0.00387573)"/>
</clipPath>
</defs>
</svg>
