<svg width="20" height="22" viewBox="0 0 20 22" fill="none" xmlns="http://www.w3.org/2000/svg">
<path fill-rule="evenodd" clip-rule="evenodd" d="M3.00003 3.99994C2.44775 3.99994 2.00003 4.44765 2.00003 4.99994V18.9999C2.00003 19.5522 2.44775 19.9999 3.00003 19.9999H17C17.5523 19.9999 18 19.5522 18 18.9999V4.99994C18 4.44765 17.5523 3.99994 17 3.99994H3.00003ZM3.05176e-05 4.99994C3.05176e-05 3.34308 1.34318 1.99994 3.00003 1.99994H17C18.6569 1.99994 20 3.34308 20 4.99994V18.9999C20 20.6568 18.6569 21.9999 17 21.9999H3.00003C1.34318 21.9999 3.05176e-05 20.6568 3.05176e-05 18.9999V4.99994Z" fill="#707494"/>
<path fill-rule="evenodd" clip-rule="evenodd" d="M14 -6.10352e-05C14.5523 -6.10352e-05 15 0.447654 15 0.999939V4.99994C15 5.55222 14.5523 5.99994 14 5.99994C13.4477 5.99994 13 5.55222 13 4.99994V0.999939C13 0.447654 13.4477 -6.10352e-05 14 -6.10352e-05Z" fill="#707494"/>
<path fill-rule="evenodd" clip-rule="evenodd" d="M6.00003 -6.10352e-05C6.55232 -6.10352e-05 7.00003 0.447654 7.00003 0.999939V4.99994C7.00003 5.55222 6.55232 5.99994 6.00003 5.99994C5.44775 5.99994 5.00003 5.55222 5.00003 4.99994V0.999939C5.00003 0.447654 5.44775 -6.10352e-05 6.00003 -6.10352e-05Z" fill="#707494"/>
<path fill-rule="evenodd" clip-rule="evenodd" d="M3.05176e-05 8.99994C3.05176e-05 8.44765 0.447746 7.99994 1.00003 7.99994H19C19.5523 7.99994 20 8.44765 20 8.99994C20 9.55222 19.5523 9.99994 19 9.99994H1.00003C0.447746 9.99994 3.05176e-05 9.55222 3.05176e-05 8.99994Z" fill="#707494"/>
</svg>
