<svg width="25" height="19" viewBox="0 0 25 19" fill="none" xmlns="http://www.w3.org/2000/svg">
<path fill-rule="evenodd" clip-rule="evenodd" d="M6.1711 10.8317V17.5757C6.1711 18.3641 6.81012 19.0031 7.59851 19.0031H17.1142C17.9026 19.0031 18.5416 18.3641 18.5416 17.5757V10.8317C19.3812 11.6926 20.7168 11.8758 21.6425 11.0115L23.5518 9.22885C24.2299 8.596 24.433 7.58438 24.011 6.73447C23.0552 4.80885 22.096 3.27031 20.7528 2.14797C19.3883 1.00773 17.7148 0.36728 15.4592 0.0576351C14.5853 -0.0624451 13.7601 0.385413 13.3471 1.11901L12.3564 2.87859L11.3657 1.11901C10.9527 0.385377 10.1274 -0.0624706 9.25362 0.0576351C6.99782 0.36729 5.32429 1.00773 3.96 2.14797C2.61681 3.27031 1.6578 4.8088 0.701743 6.73447C0.279778 7.58438 0.482892 8.596 1.16095 9.22885L3.07025 11.0115C3.99603 11.8758 5.33162 11.6926 6.17119 10.8317H6.1711ZM4.36891 9.62035C4.4635 9.70857 4.61125 9.70519 4.70166 9.61259C5.01749 9.28859 6.1701 8.48071 6.17107 8.00956V5.6803C6.17107 5.15476 6.59702 4.72883 7.12253 4.72883C7.64807 4.72883 8.07421 5.15478 8.07421 5.6803V17.0995H11.4047V5.06753L9.70731 2.05301C9.65772 1.96479 9.57329 1.93472 9.51255 1.94309C7.49094 2.22068 6.19058 2.76431 5.18018 3.60846C4.14847 4.47071 3.33159 5.71709 2.40623 7.58082C2.36799 7.65809 2.38094 7.76443 2.4596 7.83771L4.36891 9.62035ZM13.308 5.0675V17.0995H16.6386V5.68026C16.6386 5.15472 17.0647 4.7288 17.5902 4.7288C18.1158 4.7288 18.5417 5.15475 18.5417 5.68026V8.00917C18.5417 8.47993 19.6955 9.28899 20.0111 9.61261C20.1015 9.7052 20.2493 9.70859 20.3439 9.62037L22.253 7.8377C22.3318 7.76442 22.3448 7.65808 22.3065 7.58081C21.3812 5.71708 20.5643 4.4707 19.5326 3.60845C18.5222 2.76429 17.2218 2.22066 15.2002 1.94308C15.1395 1.93471 15.055 1.96478 15.0054 2.053L13.308 5.0675Z" fill="#707494"/>
</svg>
