<svg width="20" height="22" viewBox="0 0 20 22" fill="none" xmlns="http://www.w3.org/2000/svg">
<path fill-rule="evenodd" clip-rule="evenodd" d="M2.00003 3.99997C2.00003 4.00086 2.00001 4.00518 2.00309 4.01526C2.00648 4.02641 2.01486 4.04842 2.03511 4.0814C2.07755 4.15054 2.16411 4.2545 2.32627 4.38229C2.65645 4.6425 3.19619 4.92057 3.9523 5.17261C5.45405 5.67319 7.59232 5.99997 10 5.99997C12.4077 5.99997 14.546 5.67319 16.0478 5.17261C16.8039 4.92057 17.3436 4.6425 17.6738 4.38229C17.836 4.2545 17.9225 4.15054 17.965 4.0814C17.9852 4.04842 17.9936 4.02641 17.997 4.01526C18 4.00518 18 4.00092 18 4.00003C18 3.99931 18.0001 3.99503 17.997 3.98468C17.9936 3.97353 17.9852 3.95152 17.965 3.91854C17.9225 3.8494 17.836 3.74544 17.6738 3.61765C17.3436 3.35744 16.8039 3.07937 16.0478 2.82733C14.546 2.32675 12.4077 1.99997 10 1.99997C7.59232 1.99997 5.45405 2.32675 3.9523 2.82733C3.19619 3.07937 2.65645 3.35744 2.32627 3.61765C2.16411 3.74544 2.07755 3.8494 2.03511 3.91854C2.01486 3.95152 2.00648 3.97353 2.00309 3.98468C2.00001 3.99476 2.00003 3.99908 2.00003 3.99997ZM3.31984 0.929966C5.07544 0.344765 7.43718 -3.05176e-05 10 -3.05176e-05C12.5629 -3.05176e-05 14.9246 0.344765 16.6802 0.929966C17.5528 1.22082 18.3311 1.5892 18.9117 2.04682C19.4811 2.49556 20 3.14802 20 3.99997C20 4.85192 19.4811 5.50438 18.9117 5.95312C18.3311 6.41074 17.5528 6.77912 16.6802 7.06997C14.9246 7.65517 12.5629 7.99997 10 7.99997C7.43718 7.99997 5.07544 7.65517 3.31984 7.06997C2.44727 6.77912 1.66899 6.41074 1.08832 5.95312C0.518923 5.50438 3.05176e-05 4.85192 3.05176e-05 3.99997C3.05176e-05 3.14802 0.518923 2.49556 1.08832 2.04682C1.66899 1.5892 2.44727 1.22082 3.31984 0.929966Z" fill="#707494"/>
<path fill-rule="evenodd" clip-rule="evenodd" d="M1.00003 9.99997C1.55232 9.99997 2.00003 10.4477 2.00003 11C2.00003 11.0019 2.00011 11.007 2.00343 11.018C2.00698 11.0297 2.01547 11.0521 2.03561 11.0851C2.07775 11.1543 2.16351 11.2579 2.32422 11.3853C2.65162 11.6447 3.18791 11.9223 3.9417 12.1739C5.43894 12.6738 7.5768 13 10 13C12.4233 13 14.5611 12.6738 16.0584 12.1739C16.8122 11.9223 17.3484 11.6447 17.6758 11.3853C17.8365 11.2579 17.9223 11.1543 17.9645 11.0851C17.9846 11.0521 17.9931 11.0297 17.9966 11.018C18 11.007 18 11.0019 18 11C18 10.4477 18.4477 9.99997 19 9.99997C19.5523 9.99997 20 10.4477 20 11C20 11.8494 19.4868 12.502 18.918 12.9528C18.3391 13.4115 17.5629 13.7802 16.6917 14.071C14.9389 14.6562 12.5768 15 10 15C7.42327 15 5.06112 14.6562 3.30837 14.071C2.43715 13.7802 1.66094 13.4115 1.08209 12.9528C0.513225 12.502 3.05176e-05 11.8494 3.05176e-05 11C3.05176e-05 10.4477 0.447746 9.99997 1.00003 9.99997Z" fill="#707494"/>
<path fill-rule="evenodd" clip-rule="evenodd" d="M1.00003 2.99997C1.55232 2.99997 2.00003 3.44768 2.00003 3.99997V18C2.00003 18.0019 2.00011 18.007 2.00343 18.018C2.00698 18.0297 2.01547 18.0521 2.03561 18.0851C2.07775 18.1543 2.16351 18.2579 2.32422 18.3853C2.65162 18.6447 3.18791 18.9223 3.9417 19.1739C5.43894 19.6738 7.5768 20 10 20C12.4233 20 14.5611 19.6738 16.0584 19.1739C16.8122 18.9223 17.3484 18.6447 17.6758 18.3853C17.8365 18.2579 17.9223 18.1543 17.9645 18.0851C17.9846 18.0521 17.9931 18.0297 17.9966 18.018C18 18.007 18 18.0019 18 18V4.00003C18 3.44775 18.4477 2.99997 19 2.99997C19.5523 2.99997 20 3.44768 20 3.99997V18C20 18.8493 19.4868 19.502 18.918 19.9528C18.3391 20.4115 17.5629 20.7802 16.6917 21.071C14.9389 21.6562 12.5768 22 10 22C7.42327 22 5.06112 21.6562 3.30837 21.071C2.43715 20.7802 1.66094 20.4115 1.08209 19.9528C0.513225 19.502 3.05176e-05 18.8493 3.05176e-05 18V3.99997C3.05176e-05 3.44768 0.447746 2.99997 1.00003 2.99997Z" fill="#707494"/>
</svg>
