<svg width="18" height="20" viewBox="0 0 18 20" fill="none" xmlns="http://www.w3.org/2000/svg">
<path d="M17.9995 6V18.993C18.0004 19.1243 17.9755 19.2545 17.9261 19.3762C17.8767 19.4979 17.8038 19.6087 17.7116 19.7022C17.6194 19.7957 17.5096 19.8701 17.3887 19.9212C17.2677 19.9723 17.1378 19.9991 17.0065 20H0.992512C0.729325 20 0.476903 19.8955 0.290708 19.7095C0.104513 19.5235 -0.000223239 19.2712 -0.000488281 19.008V0.992C-0.000488281 0.455 0.448512 0 1.00151 0H11.9965L17.9995 6ZM15.9995 7H10.9995V2H1.99951V18H15.9995V7ZM4.99951 5H7.99951V7H4.99951V5ZM4.99951 9H12.9995V11H4.99951V9ZM4.99951 13H12.9995V15H4.99951V13Z" fill="#67768E"/>
</svg>
