<svg width="20" height="19" viewBox="0 0 20 19" fill="none" xmlns="http://www.w3.org/2000/svg">
<path d="M7.48535 2.375H3.52702C3.08979 2.375 2.73535 2.72944 2.73535 3.16667V7.125C2.73535 7.56223 3.08979 7.91667 3.52702 7.91667H7.48535C7.92258 7.91667 8.27702 7.56223 8.27702 7.125V3.16667C8.27702 2.72944 7.92258 2.375 7.48535 2.375Z" stroke="white" stroke-width="1.40535" stroke-linecap="round" stroke-linejoin="round"/>
<path d="M16.1937 2.375H12.2354C11.7981 2.375 11.4437 2.72944 11.4437 3.16667V7.125C11.4437 7.56223 11.7981 7.91667 12.2354 7.91667H16.1937C16.6309 7.91667 16.9854 7.56223 16.9854 7.125V3.16667C16.9854 2.72944 16.6309 2.375 16.1937 2.375Z" stroke="white" stroke-width="1.40535" stroke-linecap="round" stroke-linejoin="round"/>
<path d="M16.1937 11.0833H12.2354C11.7981 11.0833 11.4437 11.4378 11.4437 11.875V15.8333C11.4437 16.2706 11.7981 16.625 12.2354 16.625H16.1937C16.6309 16.625 16.9854 16.2706 16.9854 15.8333V11.875C16.9854 11.4378 16.6309 11.0833 16.1937 11.0833Z" stroke="white" stroke-width="1.40535" stroke-linecap="round" stroke-linejoin="round"/>
<path d="M7.48535 11.0833H3.52702C3.08979 11.0833 2.73535 11.4378 2.73535 11.875V15.8333C2.73535 16.2706 3.08979 16.625 3.52702 16.625H7.48535C7.92258 16.625 8.27702 16.2706 8.27702 15.8333V11.875C8.27702 11.4378 7.92258 11.0833 7.48535 11.0833Z" stroke="white" stroke-width="1.40535" stroke-linecap="round" stroke-linejoin="round"/>
</svg>
