<svg width="21" height="21" viewBox="0 0 21 21" fill="none" xmlns="http://www.w3.org/2000/svg">
<path d="M10.4988 20.9168C4.7457 20.9168 0.0821533 16.2532 0.0821533 10.5001C0.0821533 4.74696 4.7457 0.0834198 10.4988 0.0834198C16.2519 0.0834198 20.9155 4.74696 20.9155 10.5001C20.9155 16.2532 16.2519 20.9168 10.4988 20.9168ZM10.4988 18.8334C12.709 18.8334 14.8286 17.9554 16.3914 16.3926C17.9542 14.8298 18.8322 12.7102 18.8322 10.5001C18.8322 8.28995 17.9542 6.17033 16.3914 4.60753C14.8286 3.04473 12.709 2.16675 10.4988 2.16675C8.28868 2.16675 6.16907 3.04473 4.60626 4.60753C3.04346 6.17033 2.16549 8.28995 2.16549 10.5001C2.16549 12.7102 3.04346 14.8298 4.60626 16.3926C6.16907 17.9554 8.28868 18.8334 10.4988 18.8334ZM9.45715 13.6251H11.5405V15.7084H9.45715V13.6251ZM11.5405 11.9115V12.5834H9.45715V11.0209C9.45715 10.7447 9.5669 10.4797 9.76225 10.2844C9.9576 10.089 10.2226 9.97925 10.4988 9.97925C10.7947 9.97923 11.0846 9.89519 11.3346 9.73689C11.5846 9.57859 11.7845 9.35255 11.9111 9.08507C12.0377 8.81759 12.0857 8.51966 12.0495 8.22596C12.0134 7.93226 11.8946 7.65486 11.707 7.42604C11.5194 7.19721 11.2706 7.02637 10.9897 6.93339C10.7087 6.84041 10.4072 6.82911 10.1201 6.90082C9.833 6.97253 9.57217 7.12428 9.36795 7.33844C9.16373 7.55259 9.02453 7.82033 8.96653 8.1105L6.92278 7.70113C7.04948 7.06788 7.34206 6.47964 7.77061 5.99653C8.19916 5.51342 8.74832 5.15278 9.36193 4.95146C9.97555 4.75015 10.6316 4.71538 11.2631 4.85073C11.8945 4.98607 12.4787 5.28666 12.9559 5.72178C13.4331 6.15689 13.7862 6.71093 13.9791 7.32724C14.1721 7.94355 14.1978 8.60003 14.0539 9.22957C13.9099 9.85912 13.6014 10.4391 13.1598 10.9104C12.7182 11.3816 12.1594 11.7271 11.5405 11.9115Z" fill="#67768E"/>
</svg>
