<svg width="24" height="20" viewBox="0 0 24 20" fill="none" xmlns="http://www.w3.org/2000/svg">
<path d="M5.52594 5.84015C5.52594 5.35738 5.13464 4.96629 4.65208 4.96629C4.16932 4.96629 3.77822 5.3574 3.77822 5.84015V16.2808C3.77822 17.9167 5.10425 19.2429 6.74012 19.2429H17.1812C18.817 19.2429 20.1431 17.9167 20.1431 16.2808V5.84015C20.1431 5.35738 19.7518 4.96629 19.2693 4.96629C18.7867 4.96629 18.3954 5.35738 18.3954 5.84015V16.2808C18.3954 16.9515 17.8519 17.4952 17.1812 17.4952H6.74012C6.06964 17.4952 5.52594 16.9515 5.52594 16.2808V5.84015Z" fill="#5D5FEF" stroke="#5D5FEF" stroke-width="0.181598"/>
<path fill-rule="evenodd" clip-rule="evenodd" d="M10.0893 10.582C10.0893 9.54865 10.927 8.71094 11.9604 8.71094C12.9938 8.71094 13.8315 9.54865 13.8315 10.582C13.8315 11.6154 12.9938 12.4531 11.9604 12.4531C10.927 12.4531 10.0893 11.6154 10.0893 10.582Z" fill="#5D5FEF"/>
<path d="M12.6572 2.17321L12.6572 2.17322L21.9007 8.64353C22.2961 8.92032 22.8409 8.82415 23.1177 8.42877C23.3944 8.03338 23.2983 7.48859 22.9029 7.21181L13.6597 0.741491L13.6596 0.741485C12.6396 0.0276086 11.2822 0.0276031 10.2623 0.74149L10.3143 0.815876L10.2623 0.741491L1.01904 7.2118L1.07111 7.28619L1.01904 7.21181C0.623661 7.48859 0.527488 8.03338 0.80428 8.42877C1.08106 8.82415 1.62586 8.92032 2.02125 8.64353L11.2645 2.17322L11.2124 2.09883L11.2645 2.17321C11.6826 1.88048 12.2391 1.88048 12.6572 2.17321Z" fill="#5D5FEF" stroke="#5D5FEF" stroke-width="0.181598"/>
</svg>
