<svg width="24" height="26" viewBox="0 0 24 26" fill="none" xmlns="http://www.w3.org/2000/svg">
<path fill-rule="evenodd" clip-rule="evenodd" d="M4.44787 8.91118V24.7684C4.44787 25.1058 4.65124 25.4101 4.96307 25.5395C5.27492 25.6686 5.63373 25.5971 5.87243 25.3585L6.95158 24.2795L8.03073 25.3585C8.35655 25.6845 8.88514 25.6845 9.21078 25.3585L10.2899 24.2795L11.3691 25.3585C11.6949 25.6845 12.2235 25.6845 12.5491 25.3585L13.6283 24.2795L14.7074 25.3585C15.0333 25.6845 15.5618 25.6845 15.8875 25.3585L16.9666 24.2795L18.0458 25.3585C18.2845 25.5971 18.6433 25.6686 18.9551 25.5395C19.267 25.4101 19.4704 25.1058 19.4704 24.7684V8.91118H21.1396C22.5215 8.91118 23.6433 7.78916 23.6433 6.40752V3.06922C23.6433 1.68738 22.5213 0.565552 21.1396 0.565552H2.77869C1.39685 0.565552 0.275024 1.68758 0.275024 3.06922V6.40752C0.275024 7.78936 1.39705 8.91118 2.77869 8.91118H4.44787ZM17.8013 5.57288H6.11704V22.7535L6.36155 22.5092C6.68737 22.1831 7.21596 22.1831 7.5416 22.5092L8.62075 23.5881L9.6999 22.5092C10.0257 22.1831 10.5543 22.1831 10.88 22.5092L11.9591 23.5881L13.0383 22.5092C13.3641 22.1831 13.8927 22.1831 14.2183 22.5092L15.2975 23.5881L16.3766 22.5092C16.7024 22.1831 17.231 22.1831 17.5567 22.5092L17.8012 22.7535V5.57288H17.8013ZM8.6208 18.9263H15.2975C15.7582 18.9263 16.1321 18.5523 16.1321 18.0917C16.1321 17.631 15.7582 17.257 15.2975 17.257H8.6208C8.16012 17.257 7.78617 17.631 7.78617 18.0917C7.78617 18.5523 8.16011 18.9263 8.6208 18.9263ZM8.6208 14.7533H15.2975C15.7582 14.7533 16.1321 14.3794 16.1321 13.9187C16.1321 13.458 15.7582 13.0841 15.2975 13.0841H8.6208C8.16012 13.0841 7.78617 13.458 7.78617 13.9187C7.78617 14.3794 8.16011 14.7533 8.6208 14.7533ZM8.6208 10.5804H15.2975C15.7582 10.5804 16.1321 10.2065 16.1321 9.74577C16.1321 9.28509 15.7582 8.91113 15.2975 8.91113H8.6208C8.16012 8.91113 7.78617 9.28507 7.78617 9.74577C7.78617 10.2065 8.16011 10.5804 8.6208 10.5804ZM19.4705 7.24211H21.1397C21.6004 7.24211 21.9744 6.86817 21.9744 6.40747V3.06917C21.9744 2.60848 21.6004 2.23453 21.1397 2.23453H2.77879C2.31811 2.23453 1.94415 2.60847 1.94415 3.06917V6.40747C1.94415 6.86815 2.31809 7.24211 2.77879 7.24211H4.44806V5.57283C3.98738 5.57283 3.61343 5.19889 3.61343 4.73819C3.61343 4.2775 3.98737 3.90356 4.44806 3.90356H19.4706C19.9313 3.90356 20.3053 4.2775 20.3053 4.73819C20.3053 5.19889 19.9313 5.57283 19.4706 5.57283L19.4705 7.24211Z" fill="#707494"/>
</svg>
