<svg width="18" height="22" viewBox="0 0 18 22" fill="none" xmlns="http://www.w3.org/2000/svg">
<path d="M1.99951 16H15.9995V9.031C15.9995 5.148 12.8655 2 8.99951 2C5.13351 2 1.99951 5.148 1.99951 9.031V16ZM8.99951 0C13.9695 0 17.9995 4.043 17.9995 9.031V18H-0.000488281V9.031C-0.000488281 4.043 4.02951 0 8.99951 0ZM6.49951 19H11.4995C11.4995 19.663 11.2361 20.2989 10.7673 20.7678C10.2984 21.2366 9.66255 21.5 8.99951 21.5C8.33647 21.5 7.70059 21.2366 7.23174 20.7678C6.7629 20.2989 6.49951 19.663 6.49951 19Z" fill="#67768E"/>
</svg>
