<svg width="22" height="24" viewBox="0 0 22 24" fill="none" xmlns="http://www.w3.org/2000/svg">
<path fill-rule="evenodd" clip-rule="evenodd" d="M10.5559 2.34499C10.5556 2.34514 10.5553 2.34529 10.555 2.34544L2.55725 6.34433L2.55503 6.34544C2.38843 6.42822 2.24822 6.55585 2.15017 6.71396C2.05216 6.87201 2.00017 7.05427 2.00003 7.24025C2.00003 7.24018 2.00003 7.24031 2.00003 7.24025V16.7669C1.99874 16.9532 2.04952 17.1362 2.1467 17.2953C2.24373 17.454 2.38311 17.5826 2.54919 17.6665C2.54892 17.6663 2.54946 17.6666 2.54919 17.6665L10.5472 21.6655C10.6862 21.735 10.8397 21.7713 10.995 21.7713C11.1504 21.7713 11.3036 21.7351 11.4425 21.6656L19.4428 17.6655L19.445 17.6644C19.6116 17.5816 19.7518 17.454 19.8499 17.2959C19.9479 17.1377 19.9999 16.9554 20 16.7694V7.24044C19.9999 7.05439 19.9479 6.87207 19.8499 6.71396C19.7518 6.55585 19.6116 6.42823 19.445 6.34544L19.4428 6.34433L11.445 2.34544C11.4447 2.34529 11.4444 2.34514 11.4441 2.34499C11.3061 2.27657 11.1541 2.24097 11 2.24097C10.846 2.24097 10.694 2.27657 10.5559 2.34499ZM11.89 1.44991L12.335 0.554375C11.9202 0.348238 11.4633 0.240967 11 0.240967C10.5368 0.240967 10.0799 0.348238 9.66503 0.554375L9.66282 0.555479L1.66503 4.55437C1.66462 4.55458 1.66421 4.55478 1.6638 4.55499C1.16452 4.80337 0.744347 5.186 0.450452 5.65994C0.156315 6.13427 0.000329507 6.68125 3.33315e-05 7.23937L3.32123e-05 16.7568C-0.00313698 17.3145 0.149258 17.8622 0.440139 18.3382C0.731686 18.8153 1.15075 19.2014 1.65006 19.4529L1.65282 19.4543L9.65253 23.4542C10.0693 23.6628 10.529 23.7713 10.995 23.7713C11.461 23.7713 11.9205 23.6628 12.3372 23.4543C12.3372 23.4544 12.3373 23.4543 12.3372 23.4543L20.335 19.4554C20.3354 19.4553 20.3357 19.4551 20.336 19.4549C20.8354 19.2066 21.2557 18.8239 21.5496 18.3499C21.8438 17.8755 21.9997 17.3286 22 16.7704V7.23991C21.9997 6.68178 21.8438 6.13427 21.5496 5.65994C21.2557 5.18602 20.8356 4.8034 20.3363 4.55501C20.3359 4.5548 20.3355 4.55459 20.335 4.55437L12.3372 0.555479L11.89 1.44991Z" fill="#707494"/>
<path fill-rule="evenodd" clip-rule="evenodd" d="M0.425606 5.71269C0.672595 5.21871 1.27327 5.01849 1.76725 5.26548L11 9.88187L20.2328 5.26548C20.7268 5.01849 21.3275 5.21871 21.5745 5.71269C21.8215 6.20667 21.6212 6.80734 21.1272 7.05433L11.4472 11.8943C11.1657 12.0351 10.8343 12.0351 10.5528 11.8943L0.872819 7.05433C0.378841 6.80734 0.178617 6.20667 0.425606 5.71269Z" fill="#707494"/>
<path fill-rule="evenodd" clip-rule="evenodd" d="M11 9.99991C11.5523 9.99991 12 10.4476 12 10.9999V22.7599C12 23.3122 11.5523 23.7599 11 23.7599C10.4477 23.7599 10 23.3122 10 22.7599V10.9999C10 10.4476 10.4477 9.99991 11 9.99991Z" fill="#707494"/>
<path fill-rule="evenodd" clip-rule="evenodd" d="M5.10561 3.05269C5.3526 2.55871 5.95327 2.35849 6.44725 2.60548L16.4472 7.60548C16.9412 7.85247 17.1414 8.45314 16.8945 8.94712C16.6475 9.4411 16.0468 9.64132 15.5528 9.39433L5.55282 4.39433C5.05884 4.14734 4.85862 3.54667 5.10561 3.05269Z" fill="#707494"/>
</svg>
