<svg width="14" height="14" viewBox="0 0 14 14" fill="none" xmlns="http://www.w3.org/2000/svg">
<path d="M6.33333 0.333336C9.64533 0.333336 12.3333 3.02134 12.3333 6.33334C12.3333 9.64534 9.64533 12.3333 6.33333 12.3333C3.02133 12.3333 0.333328 9.64534 0.333328 6.33334C0.333328 3.02134 3.02133 0.333336 6.33333 0.333336ZM6.33333 11C8.91133 11 11 8.91134 11 6.33334C11 3.75467 8.91133 1.66667 6.33333 1.66667C3.75466 1.66667 1.66666 3.75467 1.66666 6.33334C1.66666 8.91134 3.75466 11 6.33333 11ZM11.99 11.0473L13.876 12.9327L12.9327 13.876L11.0473 11.99L11.99 11.0473Z" fill="#67768E"/>
</svg>
