<svg width="24" height="20" viewBox="0 0 24 20" fill="none" xmlns="http://www.w3.org/2000/svg">
<path fill-rule="evenodd" clip-rule="evenodd" d="M3.05176e-05 0.999939C3.05176e-05 0.447654 0.447746 -6.10352e-05 1.00003 -6.10352e-05H16C16.5523 -6.10352e-05 17 0.447654 17 0.999939V13.9999C17 14.5522 16.5523 14.9999 16 14.9999H1.00003C0.447746 14.9999 3.05176e-05 14.5522 3.05176e-05 13.9999V0.999939ZM2.00003 1.99994V12.9999H15V1.99994H2.00003Z" fill="#707494"/>
<path fill-rule="evenodd" clip-rule="evenodd" d="M15 5.99994C15 5.44765 15.4477 4.99994 16 4.99994H20C20.2652 4.99994 20.5196 5.1053 20.7071 5.29283L23.7071 8.29283C23.8947 8.48037 24 8.73472 24 8.99994V13.9999C24 14.5522 23.5523 14.9999 23 14.9999H16C15.4477 14.9999 15 14.5522 15 13.9999V5.99994ZM17 6.99994V12.9999H22V9.41415L19.5858 6.99994H17Z" fill="#707494"/>
<path fill-rule="evenodd" clip-rule="evenodd" d="M5.50003 14.9999C4.6716 14.9999 4.00003 15.6715 4.00003 16.4999C4.00003 17.3284 4.6716 17.9999 5.50003 17.9999C6.32846 17.9999 7.00003 17.3284 7.00003 16.4999C7.00003 15.6715 6.32846 14.9999 5.50003 14.9999ZM2.00003 16.4999C2.00003 14.5669 3.56703 12.9999 5.50003 12.9999C7.43303 12.9999 9.00003 14.5669 9.00003 16.4999C9.00003 18.4329 7.43303 19.9999 5.50003 19.9999C3.56703 19.9999 2.00003 18.4329 2.00003 16.4999Z" fill="#707494"/>
<path fill-rule="evenodd" clip-rule="evenodd" d="M18.5 14.9999C17.6716 14.9999 17 15.6715 17 16.4999C17 17.3284 17.6716 17.9999 18.5 17.9999C19.3285 17.9999 20 17.3284 20 16.4999C20 15.6715 19.3285 14.9999 18.5 14.9999ZM15 16.4999C15 14.5669 16.567 12.9999 18.5 12.9999C20.433 12.9999 22 14.5669 22 16.4999C22 18.4329 20.433 19.9999 18.5 19.9999C16.567 19.9999 15 18.4329 15 16.4999Z" fill="#707494"/>
</svg>
